<svg width="800" height="1000" viewBox="0 0 800 1000" fill="none" xmlns="http://www.w3.org/2000/svg">
<path d="M0 0H800C800 0 730.821 28.4174 705.5 65.5C684.323 96.5149 699.668 127.185 677.5 157.5C653.04 190.949 613.404 181.762 588 214.5C562.675 247.136 581.143 283.016 555 315C526.533 349.826 479.183 331.926 453 368.5C428.903 402.16 460.737 442.229 432.5 472.5C407.898 498.875 372.383 479.454 345.5 503.5C307.257 537.707 343.546 591.176 310 630C276.803 668.42 224.983 645.33 191.5 683.5C156.355 723.565 188.394 773.464 155 815C125.057 852.244 81.1794 841.221 49.5 877C15.1754 915.766 0 1000 0 1000V0Z" fill="white"/>
</svg>
